<svg width="41" height="41" viewBox="0 0 41 41" fill="none" xmlns="http://www.w3.org/2000/svg">
    <path d="M20.05 40.1C19.5167 40.1 19.0083 40 18.525 39.8C18.0417 39.6 17.6 39.3167 17.2 38.95L1.15 22.9C0.783333 22.5 0.5 22.0583 0.3 21.575C0.1 21.0917 0 20.5833 0 20.05C0 19.5167 0.1 19 0.3 18.5C0.5 18 0.783333 17.5667 1.15 17.2L17.2 1.15C17.6 0.75 18.0417 0.458333 18.525 0.275C19.0083 0.0916667 19.5167 0 20.05 0C20.5833 0 21.1 0.0916667 21.6 0.275C22.1 0.458333 22.5333 0.75 22.9 1.15L38.95 17.2C39.35 17.5667 39.6417 18 39.825 18.5C40.0083 19 40.1 19.5167 40.1 20.05C40.1 20.5833 40.0083 21.0917 39.825 21.575C39.6417 22.0583 39.35 22.5 38.95 22.9L22.9 38.95C22.5333 39.3167 22.1 39.6 21.6 39.8C21.1 40 20.5833 40.1 20.05 40.1ZM20.05 36.1L36.1 20.05L20.05 4L4 20.05L20.05 36.1ZM18.05 22.05H22.05V10.05H18.05V22.05ZM20.05 28.05C20.6167 28.05 21.0917 27.8583 21.475 27.475C21.8583 27.0917 22.05 26.6167 22.05 26.05C22.05 25.4833 21.8583 25.0083 21.475 24.625C21.0917 24.2417 20.6167 24.05 20.05 24.05C19.4833 24.05 19.0083 24.2417 18.625 24.625C18.2417 25.0083 18.05 25.4833 18.05 26.05C18.05 26.6167 18.2417 27.0917 18.625 27.475C19.0083 27.8583 19.4833 28.05 20.05 28.05Z" fill="#663800"/>
</svg>
