<svg width="18" height="15" viewBox="0 0 18 15" fill="none" xmlns="http://www.w3.org/2000/svg">
    <path d="M5.25 15V12H0L2.8875 7.5H1.5L6.75 0L9 3.225L11.25 0L16.5 7.5H15.1125L18 12H12.75V15H9.75V12H8.25V15H5.25ZM12.5437 10.5H15.2625L12.3562 6H13.6125L11.25 2.625L9.91875 4.51875L12 7.5H10.6125L12.5437 10.5ZM2.7375 10.5H10.7625L7.85625 6H9.1125L6.75 2.625L4.3875 6H5.64375L2.7375 10.5ZM2.7375 10.5H5.64375H4.3875H6.75H9.1125H7.85625H10.7625H2.7375ZM12.5437 10.5H10.6125H12H9.91875H11.25H13.6125H12.3562H15.2625H12.5437ZM9.75 12H12.75H9.75Z" fill="#16A34A"/>
</svg>
