<svg width="60" height="60" viewBox="0 0 60 60" fill="none" xmlns="http://www.w3.org/2000/svg">
    <g filter="url(#filter0_d_2_3725)">
        <rect x="2" y="1" width="56" height="56" rx="12" fill="white" shape-rendering="crispEdges"/>
        <path d="M22.6666 39.6666C20.6444 39.6666 18.9166 38.9666 17.4833 37.5666C16.0499 36.1666 15.3333 34.4555 15.3333 32.4333C15.3333 30.7 15.8555 29.1555 16.8999 27.8C17.9444 26.4444 19.311 25.5778 20.9999 25.2C21.5555 23.1555 22.6666 21.5 24.3333 20.2333C25.9999 18.9666 27.8888 18.3333 29.9999 18.3333C32.5999 18.3333 34.8055 19.2389 36.6166 21.05C38.4277 22.8611 39.3333 25.0666 39.3333 27.6666C40.8666 27.8444 42.1388 28.5055 43.1499 29.65C44.161 30.7944 44.6666 32.1333 44.6666 33.6666C44.6666 35.3333 44.0833 36.75 42.9166 37.9166C41.7499 39.0833 40.3333 39.6666 38.6666 39.6666H31.3333C30.5999 39.6666 29.9721 39.4055 29.4499 38.8833C28.9277 38.3611 28.6666 37.7333 28.6666 37V30.1333L26.5333 32.2L24.6666 30.3333L29.9999 25L35.3333 30.3333L33.4666 32.2L31.3333 30.1333V37H38.6666C39.5999 37 40.3888 36.6778 41.0333 36.0333C41.6777 35.3889 41.9999 34.6 41.9999 33.6666C41.9999 32.7333 41.6777 31.9444 41.0333 31.3C40.3888 30.6555 39.5999 30.3333 38.6666 30.3333H36.6666V27.6666C36.6666 25.8222 36.0166 24.25 34.7166 22.95C33.4166 21.65 31.8444 21 29.9999 21C28.1555 21 26.5833 21.65 25.2833 22.95C23.9833 24.25 23.3333 25.8222 23.3333 27.6666H22.6666C21.3777 27.6666 20.2777 28.1222 19.3666 29.0333C18.4555 29.9444 17.9999 31.0444 17.9999 32.3333C17.9999 33.6222 18.4555 34.7222 19.3666 35.6333C20.2777 36.5444 21.3777 37 22.6666 37H25.9999V39.6666H22.6666Z" fill="#8D4F00"/>
    </g>
    <defs>
        <filter id="filter0_d_2_3725" x="0" y="0" width="60" height="60" filterUnits="userSpaceOnUse" color-interpolation-filters="sRGB">
            <feFlood flood-opacity="0" result="BackgroundImageFix"/>
            <feColorMatrix in="SourceAlpha" type="matrix" values="0 0 0 0 0 0 0 0 0 0 0 0 0 0 0 0 0 0 127 0" result="hardAlpha"/>
            <feOffset dy="1"/>
            <feGaussianBlur stdDeviation="1"/>
            <feComposite in2="hardAlpha" operator="out"/>
            <feColorMatrix type="matrix" values="0 0 0 0 0 0 0 0 0 0 0 0 0 0 0 0 0 0 0.05 0"/>
            <feBlend mode="normal" in2="BackgroundImageFix" result="effect1_dropShadow_2_3725"/>
            <feBlend mode="normal" in="SourceGraphic" in2="effect1_dropShadow_2_3725" result="shape"/>
        </filter>
    </defs>
</svg>
