<svg width="80" height="80" viewBox="0 0 80 80" fill="none" xmlns="http://www.w3.org/2000/svg">
    <rect width="80" height="80" rx="12" fill="#1B2B4B"/>
    <path d="M46.6667 56.6667C44.3611 56.6667 42.3958 55.8542 40.7708 54.2292C39.1458 52.6042 38.3333 50.6389 38.3333 48.3333C38.3333 46.0278 39.1458 44.0625 40.7708 42.4375C42.3958 40.8125 44.3611 40 46.6667 40C48.9722 40 50.9375 40.8125 52.5625 42.4375C54.1875 44.0625 55 46.0278 55 48.3333C55 50.6389 54.1875 52.6042 52.5625 54.2292C50.9375 55.8542 48.9722 56.6667 46.6667 56.6667ZM38.3333 56.6667C34.4722 55.6945 31.2847 53.4792 28.7708 50.0208C26.2569 46.5625 25 42.7222 25 38.5V28.3333L38.3333 23.3333L51.6667 28.3333V37.7917C50.9444 37.4306 50.1319 37.1528 49.2292 36.9583C48.3264 36.7639 47.4722 36.6667 46.6667 36.6667C43.4444 36.6667 40.6944 37.8056 38.4167 40.0833C36.1389 42.3611 35 45.1111 35 48.3333C35 50.0556 35.3264 51.6111 35.9792 53C36.6319 54.3889 37.4583 55.5972 38.4583 56.625C38.4306 56.625 38.4097 56.632 38.3958 56.6458C38.3819 56.6597 38.3611 56.6667 38.3333 56.6667ZM46.6667 48.3333C47.3611 48.3333 47.9514 48.0903 48.4375 47.6042C48.9236 47.1181 49.1667 46.5278 49.1667 45.8333C49.1667 45.1389 48.9236 44.5486 48.4375 44.0625C47.9514 43.5764 47.3611 43.3333 46.6667 43.3333C45.9722 43.3333 45.3819 43.5764 44.8958 44.0625C44.4097 44.5486 44.1667 45.1389 44.1667 45.8333C44.1667 46.5278 44.4097 47.1181 44.8958 47.6042C45.3819 48.0903 45.9722 48.3333 46.6667 48.3333ZM46.6667 53.3333C47.5278 53.3333 48.3194 53.132 49.0417 52.7292C49.7639 52.3264 50.3472 51.7917 50.7917 51.125C50.1806 50.7639 49.5278 50.4861 48.8333 50.2917C48.1389 50.0972 47.4167 50 46.6667 50C45.9167 50 45.1944 50.0972 44.5 50.2917C43.8056 50.4861 43.1528 50.7639 42.5417 51.125C42.9861 51.7917 43.5694 52.3264 44.2917 52.7292C45.0139 53.132 45.8056 53.3333 46.6667 53.3333Z" fill="#FD9826"/>
</svg>
