<svg width="40" height="40" viewBox="0 0 40 40" fill="none" xmlns="http://www.w3.org/2000/svg">
    <rect width="40" height="40" rx="12" fill="#1B2B4B"/>
    <path d="M24 30C22.6167 30 21.4375 29.5125 20.4625 28.5375C19.4875 27.5625 19 26.3833 19 25C19 23.6167 19.4875 22.4375 20.4625 21.4625C21.4375 20.4875 22.6167 20 24 20C25.3833 20 26.5625 20.4875 27.5375 21.4625C28.5125 22.4375 29 23.6167 29 25C29 26.3833 28.5125 27.5625 27.5375 28.5375C26.5625 29.5125 25.3833 30 24 30ZM19 30C16.6833 29.4167 14.7708 28.0875 13.2625 26.0125C11.7542 23.9375 11 21.6333 11 19.1V13L19 10L27 13V18.675C26.5667 18.4583 26.0792 18.2917 25.5375 18.175C24.9958 18.0583 24.4833 18 24 18C22.0667 18 20.4167 18.6833 19.05 20.05C17.6833 21.4167 17 23.0667 17 25C17 26.0333 17.1958 26.9667 17.5875 27.8C17.9792 28.6333 18.475 29.3583 19.075 29.975C19.0583 29.975 19.0458 29.9792 19.0375 29.9875C19.0292 29.9958 19.0167 30 19 30ZM24 25C24.4167 25 24.7708 24.8542 25.0625 24.5625C25.3542 24.2708 25.5 23.9167 25.5 23.5C25.5 23.0833 25.3542 22.7292 25.0625 22.4375C24.7708 22.1458 24.4167 22 24 22C23.5833 22 23.2292 22.1458 22.9375 22.4375C22.6458 22.7292 22.5 23.0833 22.5 23.5C22.5 23.9167 22.6458 24.2708 22.9375 24.5625C23.2292 24.8542 23.5833 25 24 25ZM24 28C24.5167 28 24.9917 27.8792 25.425 27.6375C25.8583 27.3958 26.2083 27.075 26.475 26.675C26.1083 26.4583 25.7167 26.2917 25.3 26.175C24.8833 26.0583 24.45 26 24 26C23.55 26 23.1167 26.0583 22.7 26.175C22.2833 26.2917 21.8917 26.4583 21.525 26.675C21.7917 27.075 22.1417 27.3958 22.575 27.6375C23.0083 27.8792 23.4833 28 24 28Z" fill="#8393B8"/>
</svg>
