<svg width="14" height="14" viewBox="0 0 14 14" fill="none" xmlns="http://www.w3.org/2000/svg">
    <path d="M12.3 13.5188L8.19375 9.4125L9.76875 7.8375L13.875 11.9438L12.3 13.5188ZM1.95 13.5188L0.375 11.9438L5.55 6.76875L4.275 5.49375L3.75 6.01875L2.79375 5.0625V6.6L2.26875 7.125L0 4.85625L0.525 4.33125H2.0625L1.125 3.39375L3.7875 0.73125C4.0375 0.48125 4.30625 0.3 4.59375 0.1875C4.88125 0.075 5.175 0.01875 5.475 0.01875C5.775 0.01875 6.06875 0.075 6.35625 0.1875C6.64375 0.3 6.9125 0.48125 7.1625 0.73125L5.4375 2.45625L6.375 3.39375L5.85 3.91875L7.125 5.19375L8.8125 3.50625C8.7625 3.36875 8.72188 3.225 8.69063 3.075C8.65938 2.925 8.64375 2.775 8.64375 2.625C8.64375 1.8875 8.89687 1.26562 9.40312 0.759375C9.90938 0.253125 10.5312 0 11.2688 0C11.4563 0 11.6344 0.01875 11.8031 0.05625C11.9719 0.09375 12.1438 0.15 12.3188 0.225L10.4625 2.08125L11.8125 3.43125L13.6687 1.575C13.7562 1.75 13.8156 1.92188 13.8469 2.09063C13.8781 2.25938 13.8938 2.4375 13.8938 2.625C13.8938 3.3625 13.6406 3.98438 13.1344 4.49062C12.6281 4.99687 12.0063 5.25 11.2688 5.25C11.1188 5.25 10.9688 5.2375 10.8188 5.2125C10.6688 5.1875 10.525 5.14375 10.3875 5.08125L1.95 13.5188Z" fill="#EA580C"/>
</svg>
