<svg width="80" height="80" viewBox="0 0 80 80" fill="none" xmlns="http://www.w3.org/2000/svg">
    <rect width="80" height="80" rx="12" fill="#1B2B4B"/>
    <path d="M51.4583 57.4583C51.2361 57.4583 51.0278 57.4236 50.8333 57.3542C50.6389 57.2847 50.4583 57.1667 50.2917 57L41.7917 48.5C41.625 48.3333 41.5069 48.1528 41.4375 47.9583C41.3681 47.7639 41.3333 47.5556 41.3333 47.3333C41.3333 47.1111 41.3681 46.9028 41.4375 46.7083C41.5069 46.5139 41.625 46.3333 41.7917 46.1667L45.3333 42.625C45.5 42.4583 45.6806 42.3403 45.875 42.2708C46.0694 42.2014 46.2778 42.1667 46.5 42.1667C46.7222 42.1667 46.9306 42.2014 47.125 42.2708C47.3194 42.3403 47.5 42.4583 47.6667 42.625L56.1667 51.125C56.3333 51.2917 56.4514 51.4722 56.5208 51.6667C56.5903 51.8611 56.625 52.0694 56.625 52.2917C56.625 52.5139 56.5903 52.7222 56.5208 52.9167C56.4514 53.1111 56.3333 53.2917 56.1667 53.4583L52.625 57C52.4583 57.1667 52.2778 57.2847 52.0833 57.3542C51.8889 57.4236 51.6806 57.4583 51.4583 57.4583ZM28.5833 57.5C28.3611 57.5 28.1458 57.4583 27.9375 57.375C27.7292 57.2917 27.5417 57.1667 27.375 57L23.875 53.5C23.7083 53.3333 23.5833 53.1458 23.5 52.9375C23.4167 52.7292 23.375 52.5139 23.375 52.2917C23.375 52.0694 23.4167 51.8611 23.5 51.6667C23.5833 51.4722 23.7083 51.2917 23.875 51.125L32.7083 42.2917H36.25L37.6667 40.875L30.7917 34H28.4167L23.375 28.9583L28.0833 24.25L33.125 29.2917V31.6667L40 38.5417L44.8333 33.7083L43.0417 31.9167L45.375 29.5833H40.6667L39.5 28.4167L45.4167 22.5L46.5833 23.6667V28.375L48.9167 26.0417L54.8333 31.9583C55.3056 32.4306 55.6667 32.9653 55.9167 33.5625C56.1667 34.1597 56.2917 34.7917 56.2917 35.4583C56.2917 36.125 56.1667 36.7639 55.9167 37.375C55.6667 37.9861 55.3056 38.5278 54.8333 39L51.2917 35.4583L48.9583 37.7917L47.2083 36.0417L38.5833 44.6667V48.1667L29.75 57C29.5833 57.1667 29.4028 57.2917 29.2083 57.375C29.0139 57.4583 28.8056 57.5 28.5833 57.5Z" fill="#FD9826"/>
</svg>
