<svg width="15" height="16" viewBox="0 0 15 16" fill="none" xmlns="http://www.w3.org/2000/svg">
    <path d="M7.95 15C7.5375 15 7.18437 14.8531 6.89062 14.5594C6.59688 14.2656 6.45 13.9125 6.45 13.5H9.45C9.45 13.9125 9.30312 14.2656 9.00937 14.5594C8.71562 14.8531 8.3625 15 7.95 15ZM7.95 1.5C7.4 1.5 6.89062 1.59687 6.42188 1.79062C5.95312 1.98438 5.5375 2.25 5.175 2.5875L4.0875 1.5375C4.6 1.0625 5.18437 0.6875 5.84062 0.4125C6.49687 0.1375 7.2 0 7.95 0C9.5125 0 10.8406 0.546875 11.9344 1.64062C13.0281 2.73438 13.575 4.0625 13.575 5.625C13.575 6.5125 13.4187 7.27187 13.1062 7.90312C12.7937 8.53438 12.4375 9.05 12.0375 9.45L10.9875 8.4C11.25 8.1125 11.4969 7.74375 11.7281 7.29375C11.9594 6.84375 12.075 6.2875 12.075 5.625C12.075 4.475 11.675 3.5 10.875 2.7C10.075 1.9 9.1 1.5 7.95 1.5ZM14.85 14.4L13.7812 15.4688L8.8125 10.5H5.1375C4.275 9.9875 3.59062 9.3 3.08437 8.4375C2.57812 7.575 2.325 6.6375 2.325 5.625C2.325 5.375 2.34063 5.13125 2.37188 4.89375C2.40313 4.65625 2.45 4.425 2.5125 4.2L0 1.65L1.05 0.6L14.85 14.4ZM5.5875 9H7.3125L3.825 5.5125C3.825 5.5375 3.825 5.55625 3.825 5.56875C3.825 5.58125 3.825 5.6 3.825 5.625C3.825 6.3 3.97813 6.93125 4.28438 7.51875C4.59063 8.10625 5.025 8.6 5.5875 9ZM11.0625 11.25V12.75H4.95V11.25H11.0625Z" fill="#AF8D5B"/>
</svg>
