<svg width="17" height="14" viewBox="0 0 17 14" fill="none" xmlns="http://www.w3.org/2000/svg">
    <path d="M0 13.0667V10.78C0 10.3308 0.115694 9.90889 0.347083 9.51417C0.578472 9.11944 0.898333 8.82 1.30667 8.61583C2.00083 8.26195 2.78347 7.9625 3.65458 7.7175C4.52569 7.4725 5.48528 7.35 6.53333 7.35C6.94167 7.35 7.33979 7.37042 7.72771 7.41125C8.11563 7.45208 8.49333 7.51333 8.86083 7.595L7.43167 9.02417C7.28194 8.99694 7.13563 8.98333 6.99271 8.98333C6.84979 8.98333 6.69667 8.98333 6.53333 8.98333C5.56694 8.98333 4.69924 9.09903 3.93021 9.33042C3.16118 9.56181 2.53167 9.81361 2.04167 10.0858C1.91917 10.1539 1.82049 10.2492 1.74563 10.3717C1.67076 10.4942 1.63333 10.6303 1.63333 10.78V11.4333H6.7375L8.37083 13.0667H0ZM11.0658 13.3933L8.24833 10.5758L9.39167 9.4325L11.0658 11.1067L15.19 6.9825L16.3333 8.12583L11.0658 13.3933ZM6.53333 6.53333C5.635 6.53333 4.86597 6.21347 4.22625 5.57375C3.58653 4.93403 3.26667 4.165 3.26667 3.26667C3.26667 2.36833 3.58653 1.59931 4.22625 0.959583C4.86597 0.319861 5.635 0 6.53333 0C7.43167 0 8.20069 0.319861 8.84042 0.959583C9.48014 1.59931 9.8 2.36833 9.8 3.26667C9.8 4.165 9.48014 4.93403 8.84042 5.57375C8.20069 6.21347 7.43167 6.53333 6.53333 6.53333ZM6.53333 4.9C6.9825 4.9 7.36701 4.74007 7.68688 4.42021C8.00674 4.10035 8.16667 3.71583 8.16667 3.26667C8.16667 2.8175 8.00674 2.43299 7.68688 2.11313C7.36701 1.79326 6.9825 1.63333 6.53333 1.63333C6.08417 1.63333 5.69965 1.79326 5.37979 2.11313C5.05993 2.43299 4.9 2.8175 4.9 3.26667C4.9 3.71583 5.05993 4.10035 5.37979 4.42021C5.69965 4.74007 6.08417 4.9 6.53333 4.9Z" fill="#8393B8"/>
</svg>


