<svg width="17" height="13" viewBox="0 0 17 13" fill="none" xmlns="http://www.w3.org/2000/svg">
    <path d="M4.48125 11.25H11.9812V4.74375L8.23125 1.875L4.48125 4.74375V11.25ZM2.98125 12.75V5.8875L0.88125 7.5L0 6.31875L8.23125 0L16.4813 6.3L15.5813 7.5L13.4812 5.8875V12.75H2.98125ZM8.23125 9.75C8.64375 9.75 8.99687 9.60312 9.29062 9.30937C9.58437 9.01562 9.73125 8.6625 9.73125 8.25C9.73125 7.9125 9.6375 7.55312 9.45 7.17188C9.2625 6.79063 8.85625 6.15 8.23125 5.25C7.60625 6.15 7.2 6.79063 7.0125 7.17188C6.825 7.55312 6.73125 7.9125 6.73125 8.25C6.73125 8.6625 6.87813 9.01562 7.17188 9.30937C7.46562 9.60312 7.81875 9.75 8.23125 9.75Z" fill="#041635"/>
</svg>
