<svg width="34" height="34" viewBox="0 0 34 34" fill="none" xmlns="http://www.w3.org/2000/svg">
    <path d="M19 25.5V23.45C20.5 23.0167 21.7083 22.1833 22.625 20.95C23.5417 19.7167 24 18.3167 24 16.75C24 15.1833 23.5417 13.7833 22.625 12.55C21.7083 11.3167 20.5 10.4833 19 10.05V8C21.0667 8.46667 22.75 9.5125 24.05 11.1375C25.35 12.7625 26 14.6333 26 16.75C26 18.8667 25.35 20.7375 24.05 22.3625C22.75 23.9875 21.0667 25.0333 19 25.5ZM8 19.775V13.775H12L17 8.775V24.775L12 19.775H8ZM19 20.775V12.725C19.7833 13.0917 20.3958 13.6417 20.8375 14.375C21.2792 15.1083 21.5 15.9083 21.5 16.775C21.5 17.625 21.2792 18.4125 20.8375 19.1375C20.3958 19.8625 19.7833 20.4083 19 20.775ZM15 13.625L12.85 15.775H10V17.775H12.85L15 19.925V13.625Z" fill="#8393B8"/>
</svg>
